# xmcd
#
# Track frame offsets: 
#        150
#        21315
#        35487
#        47362
#
# Disc length: 757 seconds
#
# Revision: 3
# Processed by: cddbd v1.5.1PL2 Copyright (c) Steve Scherf et al.
# Submitted via: ExactAudioCopy v0.95b4
#
DISCID=2802f304
DTITLE=Amy Allison And The Maudlins - Amy Allison And The Maudlins (He
DTITLE=llo Recording Club Selection, October 1995)
DYEAR=1995
DGENRE=Country
TTITLE0=The Whiskey Makes You Sweeter
TTITLE1=Hate At First Sight
TTITLE2=This Misery
TTITLE3=Put It In A Box
EXTD=
EXTT0=
EXTT1=
EXTT2=
EXTT3=
PLAYORDER=
